<svg xmlns="http://www.w3.org/2000/svg" width="760" height="290" viewBox="0 0 760 290" role="img" aria-labelledby="title desc">
  <title id="title">Most Used Languages</title>
  <desc id="desc">Generated local source language statistics for this project.</desc>
  <style>
    text { font-family: -apple-system, BlinkMacSystemFont, "Segoe UI", sans-serif; }
  </style>
  <rect x="8" y="8" width="744" height="274" rx="14" fill="#FFFFFF" stroke="#E5E7EB" />
  <text x="36" y="58" fill="#2F80ED" font-size="30" font-weight="700">Most Used Languages</text>
  <g clip-path="url(#barClip)">
      <rect x="36.00" y="92" width="258.35" height="18" fill="#478CBF" />
      <rect x="294.35" y="92" width="190.42" height="18" fill="#3572A5" />
      <rect x="484.77" y="92" width="106.90" height="18" fill="#6CC551" />
      <rect x="591.67" y="92" width="80.93" height="18" fill="#355070" />
      <rect x="672.60" y="92" width="51.40" height="18" fill="#083fa1" />
  </g>
  <rect x="36" y="92" width="688" height="18" rx="6" fill="none" stroke="#F3F4F6" />
  <defs>
    <clipPath id="barClip">
      <rect x="36" y="92" width="688" height="18" rx="6" />
    </clipPath>
  </defs>
  <g>
      <g transform="translate(38, 150)"><circle cx="0" cy="-6" r="8" fill="#478CBF" /><text x="18" y="0" fill="#374151" font-size="18" font-weight="600">GDScript</text><text x="18" y="25" fill="#6B7280" font-size="15">37.55% · 9.5 KB</text></g>
      <g transform="translate(268, 150)"><circle cx="0" cy="-6" r="8" fill="#3572A5" /><text x="18" y="0" fill="#374151" font-size="18" font-weight="600">Python</text><text x="18" y="25" fill="#6B7280" font-size="15">27.68% · 7.0 KB</text></g>
      <g transform="translate(498, 150)"><circle cx="0" cy="-6" r="8" fill="#6CC551" /><text x="18" y="0" fill="#374151" font-size="18" font-weight="600">Godot Scene</text><text x="18" y="25" fill="#6B7280" font-size="15">15.54% · 3.9 KB</text></g>
      <g transform="translate(38, 192)"><circle cx="0" cy="-6" r="8" fill="#355070" /><text x="18" y="0" fill="#374151" font-size="18" font-weight="600">Godot Config</text><text x="18" y="25" fill="#6B7280" font-size="15">11.76% · 3.0 KB</text></g>
      <g transform="translate(268, 192)"><circle cx="0" cy="-6" r="8" fill="#083fa1" /><text x="18" y="0" fill="#374151" font-size="18" font-weight="600">Markdown</text><text x="18" y="25" fill="#6B7280" font-size="15">7.47% · 1.9 KB</text></g>
  </g>
</svg>
